# xmcd CD database file
#
# Track frame offsets:
#	150
#	18105
#	38757
#
# Disc length: 803 seconds
#
# Revision: 1
# Processed by: cddbd v1.5.1PL0 Copyright (c) Steve Scherf et al.
# Submitted via: CDex 1.50
#
DISCID=15032103
DTITLE=UB40 - The Train is Coming
DYEAR=1998
DGENRE=Reggae
TTITLE0=The Train is Coming
TTITLE1=Tyler (Live)
TTITLE2=King (Live)
EXTD=YEAR: 1998
EXTT0=
EXTT1=
EXTT2=
PLAYORDER=
